<svg width="15" height="15" viewBox="0 0 15 15" fill="none" xmlns="http://www.w3.org/2000/svg">
<path fill-rule="evenodd" clip-rule="evenodd" d="M7.5 13.125C8.23869 13.125 8.97014 12.9795 9.65259 12.6968C10.3351 12.4141 10.9551 11.9998 11.4775 11.4775C11.9998 10.9551 12.4141 10.3351 12.6968 9.65259C12.9795 8.97014 13.125 8.23869 13.125 7.5C13.125 6.76131 12.9795 6.02986 12.6968 5.34741C12.4141 4.66495 11.9998 4.04485 11.4775 3.52252C10.9551 3.00019 10.3351 2.58586 9.65259 2.30318C8.97014 2.02049 8.23869 1.875 7.5 1.875C6.00816 1.875 4.57742 2.46763 3.52252 3.52252C2.46763 4.57742 1.875 6.00816 1.875 7.5C1.875 8.99184 2.46763 10.4226 3.52252 11.4775C4.57742 12.5324 6.00816 13.125 7.5 13.125ZM7.355 9.775L10.48 6.025L9.52 5.225L6.8325 8.44938L5.44187 7.05813L4.55813 7.94187L6.43313 9.81687L6.91688 10.3006L7.355 9.775Z" fill="black"/>
</svg>
