<svg width="30" height="30" viewBox="0 0 30 30" fill="none" xmlns="http://www.w3.org/2000/svg">
<path d="M22.9989 13.7823L18.5681 9.35152C18.3513 9.1347 18.2405 8.86795 18.2356 8.55125C18.2307 8.23455 18.3388 7.96505 18.5599 7.74275C18.781 7.52045 19.0532 7.409 19.3766 7.40839C19.7 7.40778 19.9692 7.51619 20.1842 7.73362L26.6513 14.2007C26.8602 14.4096 26.9643 14.6556 26.9637 14.9388C26.9631 15.222 26.8586 15.4678 26.6504 15.6761L20.1851 22.1413C19.9683 22.3581 19.7019 22.4693 19.3858 22.4747C19.0697 22.4802 18.8002 22.3721 18.5773 22.1504C18.3544 21.9287 18.2432 21.6562 18.2438 21.3328C18.2444 21.0094 18.3528 20.7402 18.5691 20.5252L22.9788 16.1155L10.4558 16.1155C10.1391 16.113 9.86561 15.9967 9.6354 15.7665C9.40518 15.5363 9.29099 15.2625 9.29282 14.9452C9.29464 14.6279 9.41066 14.3554 9.64088 14.1276C9.8711 13.8998 10.1427 13.7847 10.4558 13.7823L22.9989 13.7823Z" fill="black"/>
<path d="M13.6632 2.47739C14.0277 2.44412 14.3605 2.74491 14.3605 3.16381C14.3605 3.56077 14.0308 3.91811 13.578 3.96871C12.5635 4.08206 11.5679 4.3378 10.6211 4.72998C9.30041 5.27702 8.10042 6.07883 7.08963 7.08963C6.07883 8.10042 5.27702 9.30042 4.72998 10.6211C4.18294 11.9418 3.90139 13.3572 3.90139 14.7867C3.90139 16.2162 4.18295 17.6317 4.72998 18.9524C5.27702 20.273 6.07883 21.473 7.08963 22.4838C8.10043 23.4946 9.30042 24.2964 10.6211 24.8435C11.5679 25.2356 12.5635 25.4914 13.578 25.6047C14.0308 25.6553 14.3605 26.0127 14.3605 26.4096C14.3605 26.8285 14.0277 27.1293 13.6633 27.0961C12.4252 26.9831 11.2091 26.6837 10.0566 26.2063C8.55692 25.5852 7.19431 24.6747 6.04653 23.5269C4.89875 22.3791 3.98829 21.0165 3.36711 19.5169C2.74594 18.0172 2.42622 16.4099 2.42622 14.7867C2.42622 13.1635 2.74594 11.5562 3.36711 10.0566C3.98828 8.55692 4.89875 7.19431 6.04653 6.04653C7.19431 4.89875 8.55692 3.98828 10.0566 3.36711C11.2091 2.88972 12.4252 2.59038 13.6632 2.47739Z" fill="black" stroke="black" stroke-width="0.852448" stroke-linejoin="round"/>
</svg>
