<svg width="32" height="32" viewBox="0 0 32 32" fill="none" xmlns="http://www.w3.org/2000/svg">
<path d="M30.0051 8.25125C28.5053 5.65325 25.2364 5.64094 21.9483 6.52575C21.5345 3.86513 20.2354 0 16.2952 0C13.2958 0 11.6521 2.81737 10.7734 6.10537C8.26368 5.13906 4.26055 4.32969 2.2903 7.74875C0.790868 10.3468 2.40974 13.1826 4.81905 15.5857C2.72349 17.2739 0.0252425 20.3358 1.99555 23.7488C3.49531 26.3468 6.76424 26.3591 10.0458 25.4743C10.4661 28.1348 11.7648 32 15.7054 32C18.7046 32 20.3485 29.1765 21.2269 25.8885C23.7431 26.8609 27.7397 27.6642 29.71 24.2512C31.2097 21.6593 29.5909 18.8236 27.1816 16.4204C29.2771 14.7261 31.975 11.6642 30.0051 8.25125ZM27.9217 23.4479C26.6166 25.7004 23.5109 25.0036 21.5844 24.2947C22.0112 22.0612 22.1429 19.7769 22.1429 18.1458H20.9759C20.9759 19.5828 20.7437 21.6783 20.2354 23.7175C20.1037 24.2384 19.9532 24.7531 19.7839 25.2549C18.9116 27.8713 17.5186 30.0484 15.5109 30.0484C12.9071 30.0484 11.9533 27.0116 11.608 24.9914C13.7602 24.2444 15.7995 23.2157 17.2112 22.394L16.6276 21.3836C15.3853 22.0986 13.4527 22.9461 11.4325 23.5233C10.9116 23.6741 10.3908 23.8058 9.86993 23.9057C7.17199 24.4584 4.5933 24.3451 3.5893 22.6006C2.2903 20.3481 4.43643 18.0081 6.01762 16.6901C7.74312 18.1772 9.65024 19.4321 11.0685 20.2476L11.6521 19.2378C10.4097 18.5222 8.70906 17.2672 7.19718 15.7991C6.81449 15.429 6.44412 15.0467 6.09268 14.6508C4.26056 12.5865 3.07462 10.2966 4.07855 8.55219C5.37762 6.29969 8.4833 6.99644 10.4098 7.70538C9.98305 9.93881 9.85124 12.2231 9.85124 13.8542H11.0247C11.0247 12.4173 11.2566 10.3217 11.7648 8.28256C11.8966 7.76169 12.0473 7.24087 12.2167 6.73906C13.089 4.12269 14.4817 1.95169 16.4897 1.95169C19.0936 1.95169 20.0472 4.9885 20.3922 7.00869C18.2404 7.75556 16.1947 8.78444 14.7829 9.60612L15.3726 10.6165C16.6089 9.9015 18.5414 9.054 20.5681 8.47681C21.0825 8.32606 21.6034 8.19431 22.1242 8.09444C24.8286 7.54169 27.4072 7.65506 28.4112 9.39956C29.7099 11.652 27.5641 13.9921 25.9829 15.3101C24.2574 13.8229 22.3438 12.5681 20.9321 11.7525L20.3484 12.7622C21.5844 13.478 23.2912 14.7329 24.797 16.201C25.1861 16.5711 25.5561 16.9603 25.9076 17.3554C27.7397 19.4136 28.9257 21.7034 27.9217 23.4479Z" fill="#997575"/>
<path d="M16.0004 13.7512C14.7586 13.7512 13.752 14.7573 13.752 15.9993C13.752 17.2413 14.7587 18.2481 16.0004 18.2481C17.2419 18.2481 18.2486 17.2413 18.2486 15.9993C18.2486 14.7573 17.2419 13.7512 16.0004 13.7512Z" fill="#997575"/>
</svg>
