<svg width="32" height="32" viewBox="0 0 32 32" fill="none" xmlns="http://www.w3.org/2000/svg">
<g clip-path="url(#clip0_451_75)">
<path d="M28.2767 12.6609L25.8849 11.2166C25.8058 10.5715 25.5147 10.0543 25.028 9.84488L19.6003 6.56713L19.5831 6.60451C19.3599 6.1262 19.0197 5.75745 18.5698 5.56276L10.4332 0.650759L10.4185 0.684696V0.683696C10.2027 0.505196 9.95928 0.356259 9.69384 0.241196C7.67415 -0.628991 5.06109 0.929509 3.85759 3.72345C2.65503 6.51245 3.31384 9.48688 5.33397 10.3581C5.59997 10.4722 5.87578 10.5459 6.15309 10.5803L6.14122 10.6093L15.3005 13.1511C15.7498 13.3453 16.2508 13.3389 16.7523 13.1743L16.7375 13.2096L22.847 14.9063C23.3357 15.1166 23.9154 14.9766 24.4409 14.5886L27.1257 15.3329C27.6051 15.5399 28.2516 15.1112 28.5697 14.3728C28.8878 13.6349 28.757 12.8684 28.2767 12.6609ZM9.6574 6.22251C8.9204 7.93338 7.69478 8.95895 6.70803 9.29326C6.2729 9.43582 5.88453 9.45301 5.60772 9.33307C4.69922 8.9422 4.03053 6.71707 5.09197 4.25538C6.15297 1.79426 8.22859 0.751946 9.13715 1.14382C9.41397 1.26282 9.66959 1.55582 9.86378 1.9717C10.2985 2.9187 10.3939 4.51351 9.6574 6.22251Z" fill="#787599"/>
<path d="M18.5667 20.3674C18.4442 20.1983 18.426 19.9756 18.5214 19.7893C18.6163 19.6029 18.8065 19.4864 19.016 19.4864H19.2952C19.602 19.4864 19.8508 19.2381 19.8508 18.9303V18.4466C19.8508 18.1398 19.602 17.8905 19.2952 17.8905H13.9334C13.6267 17.8905 13.3773 18.1398 13.3773 18.4466V18.9303C13.3773 19.2381 13.6267 19.4864 13.9334 19.4864H14.2142C14.4232 19.4864 14.6134 19.6029 14.7088 19.7893C14.8037 19.9756 14.786 20.1983 14.663 20.3674L8.04459 28.6948C7.84303 28.9627 7.89759 29.3423 8.16503 29.5428C8.43347 29.7444 8.81303 29.6893 9.01366 29.4214L15.7564 21.7858L16.0087 31.3944C16.0087 31.7277 16.28 32.0001 16.6143 32.0001C16.9492 32.0001 17.2201 31.7277 17.2201 31.3944L17.4728 21.7858L24.2156 29.4214C24.4162 29.6893 24.7957 29.7444 25.0636 29.5428C25.3316 29.3423 25.3852 28.9627 25.1855 28.6948L18.5667 20.3674Z" fill="#787599"/>
<path d="M17.9518 15.6756C17.9518 14.9377 17.3535 14.3389 16.6146 14.3389C15.8766 14.3389 15.2783 14.9377 15.2783 15.6756C15.2783 16.4151 15.8767 17.0149 16.6146 17.0149C17.3535 17.0149 17.9518 16.4151 17.9518 15.6756Z" fill="#787599"/>
</g>
<defs>
<clipPath id="clip0_451_75">
<rect width="32" height="32" fill="white"/>
</clipPath>
</defs>
</svg>
