<svg width="32" height="32" viewBox="0 0 32 32" fill="none" xmlns="http://www.w3.org/2000/svg">
<path d="M29.5622 2.44062C29.3577 2.23618 29.0984 2.09519 28.8157 2.03465C28.5329 1.97411 28.2387 1.99658 27.9684 2.09937L2.96653 11.5625H2.96153C2.67326 11.6734 2.42624 11.8705 2.25421 12.1271C2.08218 12.3836 1.99353 12.6869 2.00037 12.9957C2.00721 13.3045 2.1092 13.6037 2.29241 13.8523C2.47563 14.101 2.73113 14.287 3.02403 14.385L3.04966 14.3931L11.6309 18.0575C11.7983 18.1083 11.9761 18.1143 12.1465 18.075C12.3169 18.0356 12.474 17.9522 12.6022 17.8331L26.3747 5C26.4157 4.95896 26.4644 4.92641 26.518 4.9042C26.5717 4.88199 26.6291 4.87056 26.6872 4.87056C26.7452 4.87056 26.8027 4.88199 26.8563 4.9042C26.9099 4.92641 26.9586 4.95896 26.9997 5C27.0407 5.04104 27.0732 5.08976 27.0955 5.14338C27.1177 5.19699 27.1291 5.25446 27.1291 5.3125C27.1291 5.37054 27.1177 5.428 27.0955 5.48162C27.0732 5.53524 27.0407 5.58396 26.9997 5.625L14.1659 19.3913C14.0468 19.5194 13.9634 19.6765 13.9241 19.8469C13.8847 20.0174 13.8907 20.1951 13.9415 20.3625L17.6072 28.9487C17.6109 28.9612 17.6147 28.9725 17.619 28.9844C17.819 29.5638 18.3253 29.9725 18.9372 30H18.9997C19.3086 30.0018 19.6108 29.9106 19.8672 29.7382C20.1236 29.5659 20.3222 29.3204 20.4372 29.0338L29.899 4.03875C30.0033 3.7683 30.027 3.47344 29.9672 3.18982C29.9074 2.9062 29.7667 2.64598 29.5622 2.44062Z" fill="#9F8975"/>
</svg>
