<svg width="32" height="32" viewBox="0 0 32 32" fill="none" xmlns="http://www.w3.org/2000/svg">
<g clip-path="url(#clip0_451_143)">
<path d="M5.93575 3.4848H1.90494C0.852875 3.4848 0 4.33799 0 5.39024V26.7827C0 27.835 0.852875 28.6871 1.90494 28.6871H5.93575C6.98781 28.6871 7.84069 27.8349 7.84069 26.7827V5.39024C7.84075 4.33799 6.98781 3.4848 5.93575 3.4848ZM6.16056 14.6399H1.68012V13.5197H6.16056V14.6399ZM6.16056 11.2795H1.68012V9.0393H6.16056V11.2795Z" fill="#759979"/>
<path d="M14.8967 3.4848H10.8659C9.81381 3.4848 8.96094 4.33799 8.96094 5.39024V26.7827C8.96094 27.835 9.81381 28.6871 10.8659 28.6871H14.8967C15.9488 28.6871 16.8016 27.8349 16.8016 26.7827V5.39024C16.8016 4.33799 15.9487 3.4848 14.8967 3.4848ZM15.1214 14.6399H10.641V13.5197H15.1214V14.6399ZM15.1214 11.2795H10.641V9.0393H15.1214V11.2795Z" fill="#759979"/>
<path d="M31.9004 24.8941L25.0975 4.61247C24.763 3.6149 23.6831 3.07784 22.6858 3.41197L18.8642 4.69397C17.8666 5.02872 17.3292 6.10834 17.6639 7.10597L24.4669 27.3875C24.8016 28.3852 25.8812 28.9222 26.8785 28.588L30.7002 27.306C31.6977 26.9713 32.235 25.8917 31.9004 24.8941ZM20.4172 10.0308L24.6651 8.60609L25.3775 10.7303L21.1295 12.1551L20.4172 10.0308ZM22.1982 15.341L21.8419 14.2788L26.0899 12.8541L26.4459 13.9162L22.1982 15.341Z" fill="#759979"/>
</g>
<defs>
<clipPath id="clip0_451_143">
<rect width="32" height="32" fill="white"/>
</clipPath>
</defs>
</svg>
