<svg width="21" height="22" viewBox="0 0 21 22" fill="none" xmlns="http://www.w3.org/2000/svg">
<path d="M9.72795 11.4591C9.56126 11.6352 9.29095 11.6352 9.12447 11.4591L8.21893 10.5033L7.61545 11.1404L9.4261 13.0526L13.047 9.22816L12.4437 8.59106L9.72795 11.4591Z" fill="#0F1A29"/>
<path d="M10.3312 5.86426C7.74271 5.86426 5.63678 8.0883 5.63678 10.822C5.63678 13.5556 7.74271 15.7797 10.3312 15.7797C12.9197 15.7797 15.0256 13.5556 15.0256 10.822C15.0256 8.0883 12.9197 5.86426 10.3312 5.86426ZM13.9523 9.54709L9.72795 14.0088C9.56126 14.1849 9.29095 14.1849 9.12425 14.0088L6.71012 11.4593C6.54364 11.2835 6.54364 10.998 6.71012 10.822L7.91708 9.54732C8.08377 9.37151 8.35386 9.37128 8.52056 9.54732L9.4261 10.5034L12.1419 7.63512C12.3086 7.45907 12.5789 7.45907 12.7456 7.63512L13.9523 8.90953C14.119 9.08558 14.119 9.37104 13.9523 9.54709Z" fill="#0F1A29"/>
<path d="M10.3312 2.70923C6.09547 2.70923 2.64961 6.34857 2.64961 10.8216C2.64961 15.2949 6.09547 18.9343 10.3312 18.9343C14.567 18.9343 18.013 15.2949 18.013 10.8216C18.013 6.34857 14.567 2.70923 10.3312 2.70923ZM10.3312 16.6806C7.2722 16.6806 4.78337 14.0524 4.78337 10.8216C4.78337 7.59106 7.2722 4.96265 10.3312 4.96265C13.3904 4.96265 15.8791 7.59106 15.8791 10.8216C15.8791 14.0524 13.3904 16.6806 10.3312 16.6806Z" fill="#0F1A29"/>
<mask id="mask0_113_2" style="mask-type:luminance" maskUnits="userSpaceOnUse" x="0" y="0" width="21" height="22">
<path d="M0 0H20.4819V21.6306H0V0Z" fill="white"/>
</mask>
<g mask="url(#mask0_113_2)">
<path d="M19.4281 8.21766C19.3521 7.91693 19.3626 7.55142 19.3735 7.1644C19.3908 6.56525 19.4086 5.9455 19.1138 5.40719C18.6218 4.50915 17.4842 4.26556 16.9651 3.71684C16.4462 3.16881 16.2144 1.96703 15.3647 1.44792C14.5179 0.930655 13.4351 1.32207 12.7035 1.11595C12.0111 0.920245 11.2409 0 10.2423 0C9.24342 0 8.47346 0.920476 7.78127 1.11595C7.4965 1.19623 7.15041 1.18512 6.78394 1.17332C6.2166 1.15528 5.62977 1.13631 5.12004 1.44792C4.60265 1.76392 4.31154 2.33901 4.05459 2.84656C3.88373 3.18408 3.72229 3.50285 3.51946 3.71684C3.31705 3.93082 3.01521 4.10108 2.69583 4.28152C2.21524 4.55288 1.67025 4.86078 1.37103 5.40719C1.07619 5.9455 1.09393 6.56525 1.11101 7.1644C1.12219 7.55142 1.1327 7.91693 1.05669 8.21743C0.985281 8.49896 0.808071 8.79947 0.620565 9.11778C0.329668 9.61099 0 10.1701 0 10.8167C0 11.4633 0.329668 12.0224 0.620565 12.5158C0.80829 12.8339 0.985281 13.1344 1.05669 13.416C1.1327 13.7167 1.12219 14.0822 1.11101 14.469C1.09393 15.0684 1.07597 15.6879 1.37103 16.2264C1.67025 16.7726 2.2148 17.0803 2.69539 17.3514C3.01499 17.5321 3.31684 17.7023 3.51946 17.9166C3.72208 18.1305 3.8833 18.4491 4.05415 18.7864C4.3111 19.2941 4.60243 19.8695 5.12004 20.1857C5.62977 20.4971 6.21638 20.4781 6.78394 20.4601C7.15041 20.4483 7.4965 20.4374 7.78105 20.5174C8.04763 20.5929 8.33217 20.78 8.63358 20.978C9.1006 21.2852 9.63004 21.6334 10.2423 21.6334C11.2411 21.6334 12.0111 20.7131 12.7035 20.5177C13.4288 20.3132 14.5221 20.7004 15.3647 20.1855C16.2149 19.6661 16.4455 18.4648 16.9651 17.9166C17.484 17.3688 18.622 17.1238 19.1138 16.2264C19.4086 15.6879 19.3908 15.0684 19.3735 14.469C19.3626 14.0822 19.3521 13.7167 19.4281 13.416C19.6136 12.6836 20.4846 11.8716 20.4846 10.8167C20.4846 10.1701 19.6132 8.94868 19.4281 8.21766ZM19.1396 12.0393C18.9271 12.3995 18.7076 12.7719 18.6034 13.1835C18.4952 13.6117 18.5079 14.0614 18.5206 14.4963C18.5346 14.9913 18.5479 15.4589 18.3749 15.7749C18.1973 16.099 17.8034 16.3215 17.3863 16.557C17.0262 16.7606 16.6536 16.9709 16.3618 17.279C16.0694 17.5876 15.8701 17.9813 15.6773 18.3619C15.4545 18.8021 15.244 19.218 14.9374 19.4054C14.6379 19.5882 14.1952 19.5743 13.7265 19.559C13.3149 19.5458 12.889 19.5322 12.4831 19.6467C12.0937 19.7568 11.741 19.9886 11.4 20.213C10.9941 20.48 10.6105 20.7321 10.2423 20.7321C9.87406 20.7321 9.49072 20.48 9.08461 20.213C8.35517 19.7332 8.01455 19.5505 7.16136 19.5505C6.55197 19.5505 5.9314 19.64 5.54741 19.4054C4.97963 19.0584 4.74963 17.9408 4.12315 17.2792C3.4958 16.6162 2.43845 16.3747 2.10966 15.7749C1.93661 15.4589 1.94997 14.9913 1.96421 14.4963C1.9767 14.0614 1.98962 13.6117 1.88119 13.1832C1.77692 12.7719 1.55744 12.3995 1.34518 12.0393C1.0924 11.6106 0.853633 11.2056 0.853633 10.8167C0.853633 10.4278 1.0924 10.023 1.34518 9.5941C1.55744 9.23391 1.77714 8.86146 1.88119 8.45015C1.98962 8.02172 1.9767 7.57201 1.96421 7.1371C1.94997 6.64228 1.93661 6.17476 2.10966 5.85852C2.28731 5.53442 2.68138 5.31188 3.09822 5.07638C3.45856 4.87304 3.83094 4.66276 4.12293 4.35439C4.75073 3.69185 4.97941 2.57521 5.54741 2.22821C6.10445 1.88791 7.1342 2.23121 8.00163 1.98669C8.84781 1.74773 9.56608 0.901507 10.2423 0.901507C10.9209 0.901507 11.6328 1.74657 12.4834 1.98669C13.3501 2.23098 14.3799 1.88768 14.9371 2.22797C15.5049 2.57497 15.7351 3.69255 16.3614 4.35416C16.6536 4.66299 17.0264 4.87327 17.3868 5.07685C17.8036 5.31211 18.1975 5.53442 18.3749 5.85852C18.5482 6.17476 18.5346 6.64205 18.5206 7.1371C18.5079 7.57201 18.4952 8.02172 18.6034 8.45038C18.8296 9.34333 19.6311 10.1026 19.6311 10.8167C19.6311 11.2056 19.3924 11.6106 19.1396 12.0393Z" fill="#0F1A29"/>
</g>
</svg>
