<svg width="32" height="32" viewBox="0 0 32 32" fill="none" xmlns="http://www.w3.org/2000/svg">
<g clip-path="url(#clip0_451_80)">
<path d="M25.0359 16.3312C25.0359 16.3312 22.4484 11.4755 22.3164 11.2294C21.8628 10.3773 21.048 9.75617 19.5123 9.75617H17.8884C18.1186 9.43717 18.2566 9.0458 18.2566 8.6253C18.2566 7.55705 17.3884 6.68886 16.3206 6.68549H11.9349C10.8663 6.68886 9.99894 7.55699 9.99894 8.6253C9.99894 9.04792 10.1368 9.43636 10.367 9.75492H9.575C8.61544 9.75492 7.837 10.5334 7.837 11.4938C7.837 12.0354 8.08406 12.5185 8.47244 12.8375C7.72869 13.0355 7.18206 13.7124 7.18206 14.5175C7.18206 15.238 7.62038 15.8562 8.24481 16.1202C7.75494 16.5407 7.30813 17.0091 6.91806 17.5248C6.31988 18.3109 5.86631 19.1786 5.55662 20.0925C5.25112 21.0097 5.09375 21.9794 5.09375 22.9694C5.09375 25.3793 6.03381 27.6504 7.73969 29.3537C9.44294 31.0599 11.7183 32 14.1273 32C16.5371 32 18.809 31.0599 20.5149 29.3536C21.9449 27.9232 22.8393 26.0925 23.0864 24.1164L26.9059 24.5441V16.3842L25.0359 16.3312ZM11.9349 8.08586H16.3205C16.6166 8.08586 16.8595 8.32617 16.8595 8.6253C16.8595 8.85211 16.7182 9.0458 16.5176 9.12492V9.1118H11.7606V9.13505C11.5464 9.0623 11.3959 8.86217 11.3959 8.62524C11.3959 8.32624 11.6353 8.08586 11.9349 8.08586ZM21.6953 23.9619C21.2122 27.7066 18.0103 30.603 14.1273 30.603C9.91006 30.603 6.49075 27.1837 6.49075 22.9694C6.49075 19.5136 8.7855 16.5944 11.9349 15.6509V9.67405H16.3206V10.4732C15.4583 10.0172 14.3676 10.2309 13.7499 11.0292C13.0603 11.9227 13.2244 13.2063 14.118 13.8964L16.3206 15.5989V15.6509C16.3612 15.6628 16.3993 15.6789 16.4399 15.6911L20.581 18.8921C21.3273 20.0725 21.7614 21.4695 21.7614 22.9693C21.7613 23.3044 21.7384 23.6365 21.6953 23.9619ZM16.3205 11.682V12.1445L15.3101 13.5952L14.5198 12.9927C14.0544 12.6331 13.9681 11.9621 14.3278 11.4967C14.5317 11.2335 14.8396 11.0825 15.173 11.0825C15.4108 11.0825 15.6359 11.1595 15.8246 11.305L16.3205 11.682Z" fill="#929975"/>
<path d="M14.2441 2.14375C14.8364 2.14456 15.3162 1.66481 15.317 1.0725C15.317 0.480626 14.8381 0.000876031 14.2467 1.03145e-06C13.6544 -0.000811469 13.1737 0.478501 13.1729 1.07125C13.1728 1.66231 13.6518 2.14288 14.2441 2.14375Z" fill="#929975"/>
<path d="M13.8022 5.7386C14.15 5.73948 14.4326 5.45723 14.4326 5.1086C14.4335 4.76042 14.1517 4.47785 13.8031 4.47742C13.4554 4.47742 13.1728 4.76004 13.1719 5.10779C13.1718 5.45604 13.4536 5.7386 13.8022 5.7386Z" fill="#929975"/>
<path d="M15.0459 3.53143C15.0459 3.94818 15.3826 4.28493 15.7998 4.28618C16.2153 4.28618 16.5537 3.9498 16.5537 3.53355C16.5546 3.1173 16.217 2.77918 15.8006 2.77918C15.3843 2.77836 15.0467 3.11518 15.0459 3.53143Z" fill="#929975"/>
<path d="M18.1478 24.0411C16.7838 24.0411 15.6068 23.6099 14.3604 23.153C13.1115 22.6994 11.8228 22.2261 10.3166 22.2261C9.46881 22.2261 8.6235 22.3741 7.7325 22.6733C7.72994 22.7718 7.72656 22.8704 7.72656 22.9694C7.72656 26.4966 10.5967 29.3668 14.1269 29.3668C15.7879 29.3668 17.3618 28.7321 18.5616 27.5784C19.6109 26.5689 20.2785 25.2472 20.4689 23.824C20.4791 23.7449 20.4884 23.6696 20.4951 23.5904C20.3208 23.6594 20.1431 23.7186 19.9688 23.7681C19.3638 23.9518 18.7596 24.0411 18.1478 24.0411Z" fill="#929975"/>
</g>
<defs>
<clipPath id="clip0_451_80">
<rect width="32" height="32" fill="white"/>
</clipPath>
</defs>
</svg>
