<svg width="20" height="20" viewBox="0 0 20 20" fill="none" xmlns="http://www.w3.org/2000/svg">
<path d="M10.0003 7.93329C9.59158 7.93329 9.19201 8.0545 8.85215 8.28159C8.51229 8.50868 8.2474 8.83145 8.09097 9.20908C7.93455 9.58671 7.89363 10.0023 7.97337 10.4031C8.05311 10.804 8.24994 11.1723 8.53897 11.4613C8.828 11.7503 9.19624 11.9472 9.59714 12.0269C9.99803 12.1067 10.4136 12.0657 10.7912 11.9093C11.1688 11.7529 11.4916 11.488 11.7187 11.1481C11.9458 10.8083 12.067 10.4087 12.067 9.99996C12.067 9.72856 12.0135 9.45982 11.9097 9.20908C11.8058 8.95834 11.6536 8.73051 11.4617 8.53861C11.2698 8.3467 11.0419 8.19447 10.7912 8.09061C10.5405 7.98675 10.2717 7.93329 10.0003 7.93329ZM18.2753 5.89163C18.2709 5.24809 18.1524 4.61044 17.9253 4.00829C17.7581 3.56768 17.4993 3.16754 17.166 2.83428C16.8327 2.50102 16.4326 2.24222 15.992 2.07496C15.3898 1.84785 14.7522 1.72934 14.1087 1.72496C13.0337 1.66663 12.717 1.66663 10.0003 1.66663C7.28366 1.66663 6.96699 1.66663 5.89199 1.72496C5.24846 1.72934 4.6108 1.84785 4.00866 2.07496C3.56804 2.24222 3.1679 2.50102 2.83465 2.83428C2.50139 3.16754 2.24259 3.56768 2.07533 4.00829C1.84821 4.61044 1.72971 5.24809 1.72533 5.89163C1.66699 6.96663 1.66699 7.28329 1.66699 9.99996C1.66699 12.7166 1.66699 13.0333 1.72533 14.1083C1.7343 14.7541 1.85264 15.3937 2.07533 16C2.24185 16.4386 2.50043 16.8364 2.83366 17.1666C3.16549 17.5019 3.56648 17.7607 4.00866 17.925C4.6108 18.1521 5.24846 18.2706 5.89199 18.275C6.96699 18.3333 7.28366 18.3333 10.0003 18.3333C12.717 18.3333 13.0337 18.3333 14.1087 18.275C14.7522 18.2706 15.3898 18.1521 15.992 17.925C16.4342 17.7607 16.8352 17.5019 17.167 17.1666C17.5002 16.8364 17.7588 16.4386 17.9253 16C18.1522 15.3949 18.2707 14.7545 18.2753 14.1083C18.3337 13.0333 18.3337 12.7166 18.3337 9.99996C18.3337 7.28329 18.3337 6.96663 18.2753 5.89163ZM16.1587 12.5583C16.1319 13.0725 16.0222 13.5791 15.8337 14.0583C15.6719 14.458 15.4314 14.8212 15.1265 15.1261C14.8215 15.431 14.4584 15.6715 14.0587 15.8333C13.5749 16.0113 13.0655 16.1098 12.5503 16.125H7.45033C6.9351 16.1098 6.42573 16.0113 5.94199 15.8333C5.52874 15.6797 5.15556 15.4347 4.85033 15.1166C4.54838 14.8177 4.3152 14.4565 4.16699 14.0583C3.98829 13.5751 3.8925 13.0651 3.88366 12.55V7.44996C3.8925 6.93481 3.98829 6.42486 4.16699 5.94163C4.32056 5.52838 4.56555 5.15519 4.88366 4.84996C5.18394 4.54965 5.54471 4.3167 5.94199 4.16663C6.42573 3.98863 6.9351 3.89013 7.45033 3.87496H12.5503C13.0655 3.89013 13.5749 3.98863 14.0587 4.16663C14.4719 4.32019 14.8451 4.56519 15.1503 4.88329C15.4523 5.18225 15.6855 5.5434 15.8337 5.94163C16.0117 6.42537 16.1102 6.93473 16.1253 7.44996V9.99996C16.1253 11.7166 16.1837 11.8916 16.1587 12.55V12.5583ZM14.8253 6.35829C14.7261 6.08911 14.5697 5.84466 14.3668 5.6418C14.164 5.43895 13.9195 5.28251 13.6503 5.18329C13.2807 5.05518 12.8914 4.99312 12.5003 4.99996H7.50033C7.10721 5.0038 6.71788 5.07715 6.35033 5.21663C6.08527 5.31134 5.8434 5.46139 5.64081 5.65679C5.43822 5.8522 5.27954 6.08849 5.17533 6.34996C5.05431 6.7211 4.99518 7.10962 5.00033 7.49996V12.5C5.00859 12.8926 5.0818 13.2812 5.21699 13.65C5.31621 13.9191 5.47265 14.1636 5.6755 14.3664C5.87836 14.5693 6.12281 14.7257 6.39199 14.825C6.74755 14.9557 7.1217 15.0289 7.50033 15.0416H12.5003C12.8934 15.0378 13.2828 14.9644 13.6503 14.825C13.9195 14.7257 14.164 14.5693 14.3668 14.3664C14.5697 14.1636 14.7261 13.9191 14.8253 13.65C14.9648 13.2824 15.0381 12.8931 15.042 12.5V7.49996C15.0422 7.10646 14.9687 6.71639 14.8253 6.34996V6.35829ZM10.0003 13.1833C9.58268 13.1833 9.16913 13.1009 8.78338 12.9408C8.39762 12.7807 8.04725 12.5461 7.75231 12.2504C7.45737 11.9547 7.22368 11.6037 7.06461 11.2175C6.90554 10.8314 6.82423 10.4176 6.82533 9.99996C6.82533 9.37 7.01224 8.75421 7.3624 8.23053C7.71256 7.70686 8.21022 7.29885 8.79238 7.05815C9.37455 6.81746 10.015 6.75491 10.6328 6.87842C11.2505 7.00192 11.8177 7.30593 12.2626 7.75197C12.7074 8.198 13.01 8.76599 13.1318 9.38405C13.2537 10.0021 13.1895 10.6424 12.9473 11.224C12.7051 11.8055 12.2957 12.3021 11.7712 12.6509C11.2466 12.9996 10.6303 13.1849 10.0003 13.1833ZM13.3337 7.44163C13.1494 7.42213 12.979 7.33514 12.8551 7.19743C12.7312 7.05973 12.6626 6.88104 12.6626 6.69579C12.6626 6.51055 12.7312 6.33186 12.8551 6.19415C12.979 6.05644 13.1494 5.96946 13.3337 5.94996C13.5179 5.96946 13.6884 6.05644 13.8123 6.19415C13.9362 6.33186 14.0047 6.51055 14.0047 6.69579C14.0047 6.88104 13.9362 7.05973 13.8123 7.19743C13.6884 7.33514 13.5179 7.42213 13.3337 7.44163Z" fill="#BDBCBC"/>
</svg>
