<svg width="89" height="69" viewBox="0 0 89 69" fill="none" xmlns="http://www.w3.org/2000/svg">
<path d="M52.3624 5.29276L52.362 5.29247C48.7135 2.36952 43.3738 2.94153 40.4354 6.57008L5.47275 49.7446C2.53435 53.3731 3.10999 58.6842 6.75847 61.6071L6.75883 61.6074C10.4073 64.5303 15.747 63.9583 18.6854 60.3298L53.6481 17.1553C56.5865 13.5268 56.0109 8.21571 52.3624 5.29276Z" fill="#C7B299"/>
<path d="M12.4215 20.5177C16.8774 20.5177 20.4896 16.9266 20.4896 12.4968C20.4896 8.06695 16.8774 4.47586 12.4215 4.47586C7.96569 4.47586 4.35352 8.06695 4.35352 12.4968C4.35352 16.9266 7.96569 20.5177 12.4215 20.5177Z" fill="#998675"/>
<path d="M80.9303 20.5178C85.3862 20.5178 88.9984 16.9267 88.9984 12.4969C88.9984 8.06707 85.3862 4.47598 80.9303 4.47598C76.4745 4.47598 72.8623 8.06707 72.8623 12.4969C72.8623 16.9267 76.4745 20.5178 80.9303 20.5178Z" fill="#C69C6D"/>
<path d="M70.5335 25.2798L70.5332 25.2796C66.884 22.3575 61.543 22.9296 58.6038 26.5575L38.1633 51.7867C35.224 55.4146 35.7995 60.7244 39.4487 63.6465L39.4491 63.6468C43.0982 66.5689 48.4392 65.9967 51.3785 62.3689L71.819 37.1396C74.7582 33.5117 74.1827 28.2019 70.5335 25.2798Z" fill="#C7B299"/>
</svg>