<svg width="72" height="58" viewBox="0 0 72 58" fill="none" xmlns="http://www.w3.org/2000/svg">
<path d="M52.6248 0.0424626C52.6248 0.0424626 56.8081 35.7275 58.8975 53.5701C59.7753 56.1845 62.1664 57.9588 64.7633 57.9993C67.8585 58.0487 70.7022 55.6185 71.1183 52.2898C69.4724 37.7714 67.8219 23.253 66.176 8.73913C65.92 7.89911 64.5164 3.57773 59.9856 1.2688C56.8035 -0.35284 52.6248 0.0424626 52.6248 0.0424626Z" fill="url(#paint0_linear_131_338)"/>
<path d="M27.0081 16.443C28.0825 26.9231 29.1614 37.4031 30.2359 47.8786C30.3364 48.512 31.26 53.8351 36.2571 56.4585C39.6678 58.2508 44.0157 57.5366 44.0157 57.5366L41.0851 31.8419C41.0851 31.8419 40.6325 27.8574 40.4039 25.8629C40.1295 24.9465 38.6071 20.149 33.6785 17.7188C30.9216 16.3622 28.3293 16.3487 27.0081 16.4385V16.443Z" fill="url(#paint1_linear_131_338)"/>
<path d="M15.4823 57.6264C14.737 49.936 13.9872 42.2455 13.242 34.5506C12.4648 31.6128 9.77191 29.5644 6.76814 29.5779C3.97468 29.5868 1.44182 31.3747 0.5 34.034C1.08521 39.1595 1.67042 44.2894 2.25563 49.4149C2.51623 50.2863 3.63178 53.6599 7.18419 55.9149C10.8646 58.2553 14.5999 57.7656 15.4823 57.6264Z" fill="url(#paint2_linear_131_338)"/>
<path d="M52.6248 0.0424805L41.0852 31.8464L44.0204 57.5411L55.5326 24.8387L52.6248 0.0424805Z" fill="#E8E8E8"/>
<path d="M27.0082 16.443L13.8044 40.3319L15.4823 57.6264L28.7547 33.4231L27.0082 16.443Z" fill="#E8E8E8"/>
<defs>
<linearGradient id="paint0_linear_131_338" x1="65.8834" y1="57.9229" x2="58.8092" y2="-0.701948" gradientUnits="userSpaceOnUse">
<stop stop-color="#6FA4E5"/>
<stop offset="1" stop-color="#A080C0"/>
</linearGradient>
<linearGradient id="paint1_linear_131_338" x1="37.9944" y1="58.2733" x2="32.8632" y2="15.7384" gradientUnits="userSpaceOnUse">
<stop stop-color="#6FA4E5"/>
<stop offset="1" stop-color="#A080C0"/>
</linearGradient>
<linearGradient id="paint2_linear_131_338" x1="9.7902" y1="58.3227" x2="6.32374" y2="29.59" gradientUnits="userSpaceOnUse">
<stop stop-color="#6FA4E5"/>
<stop offset="1" stop-color="#A080C0"/>
</linearGradient>
</defs>
</svg>
