<svg width="64" height="64" viewBox="0 0 64 64" fill="none" xmlns="http://www.w3.org/2000/svg">
<g clip-path="url(#clip0_123_121)">
<path d="M18.5602 0H45.4402C55.6802 0 64.0002 8.32 64.0002 18.56V45.44C64.0002 50.3624 62.0448 55.0832 58.5641 58.5639C55.0835 62.0446 50.3627 64 45.4402 64H18.5602C8.32024 64 0.000244141 55.68 0.000244141 45.44V18.56C0.000244141 13.6376 1.95567 8.91677 5.43634 5.4361C8.91702 1.95542 13.6378 0 18.5602 0ZM17.9202 6.4C14.865 6.4 11.9348 7.61371 9.77437 9.77413C7.61396 11.9345 6.40024 14.8647 6.40024 17.92V46.08C6.40024 52.448 11.5522 57.6 17.9202 57.6H46.0802C49.1355 57.6 52.0657 56.3863 54.2261 54.2259C56.3865 52.0655 57.6002 49.1353 57.6002 46.08V17.92C57.6002 11.552 52.4482 6.4 46.0802 6.4H17.9202ZM48.8002 11.2C49.8611 11.2 50.8785 11.6214 51.6287 12.3716C52.3788 13.1217 52.8002 14.1391 52.8002 15.2C52.8002 16.2609 52.3788 17.2783 51.6287 18.0284C50.8785 18.7786 49.8611 19.2 48.8002 19.2C47.7394 19.2 46.722 18.7786 45.9718 18.0284C45.2217 17.2783 44.8002 16.2609 44.8002 15.2C44.8002 14.1391 45.2217 13.1217 45.9718 12.3716C46.722 11.6214 47.7394 11.2 48.8002 11.2ZM32.0002 16C36.2437 16 40.3134 17.6857 43.314 20.6863C46.3145 23.6869 48.0002 27.7565 48.0002 32C48.0002 36.2435 46.3145 40.3131 43.314 43.3137C40.3134 46.3143 36.2437 48 32.0002 48C27.7568 48 23.6871 46.3143 20.6865 43.3137C17.686 40.3131 16.0002 36.2435 16.0002 32C16.0002 27.7565 17.686 23.6869 20.6865 20.6863C23.6871 17.6857 27.7568 16 32.0002 16ZM32.0002 22.4C29.4542 22.4 27.0124 23.4114 25.212 25.2118C23.4117 27.0121 22.4002 29.4539 22.4002 32C22.4002 34.5461 23.4117 36.9879 25.212 38.7882C27.0124 40.5886 29.4542 41.6 32.0002 41.6C34.5463 41.6 36.9881 40.5886 38.7885 38.7882C40.5888 36.9879 41.6002 34.5461 41.6002 32C41.6002 29.4539 40.5888 27.0121 38.7885 25.2118C36.9881 23.4114 34.5463 22.4 32.0002 22.4Z" fill="white"/>
</g>
<defs>
<clipPath id="clip0_123_121">
<rect width="64" height="64" fill="white" transform="translate(0.000244141)"/>
</clipPath>
</defs>
</svg>
