<svg width="343" height="58" viewBox="0 0 343 58" fill="none" xmlns="http://www.w3.org/2000/svg">
<path d="M125.191 12.9087C125.929 12.0867 126.618 11.7966 127.553 11.7966C129.128 11.7966 130.407 13.0538 130.407 14.6494V28.8648L144.039 12.9087C144.728 12.0867 145.515 11.7966 146.352 11.7966C147.927 11.7966 149.255 13.0538 149.255 14.6494V43.6605C149.255 45.2078 147.927 46.5133 146.352 46.5133C144.777 46.5133 143.448 45.2078 143.448 43.6605V21.8538L130.407 37.133V43.6605C130.407 45.2078 129.128 46.5133 127.553 46.5133C125.978 46.5133 124.65 45.2078 124.65 43.6605V21.8538L104.473 45.5463C103.932 46.1748 103.095 46.5133 102.357 46.5133C100.88 46.5133 99.6501 45.3045 99.6501 43.8539C99.6501 43.2737 99.7978 42.7419 100.29 42.1133L125.191 12.9087Z" fill="black"/>
<path d="M154.521 33.7484C154.521 26.5923 160.082 20.9351 167.562 20.9351C171.401 20.9351 174.403 22.434 176.076 23.9329C176.666 24.4648 177.06 25.1901 177.06 25.9637C177.06 26.6406 176.863 27.2209 176.273 27.8978L168.694 36.7462C168.153 37.3748 167.562 37.6165 166.824 37.6165C165.348 37.6165 164.265 36.6011 164.265 35.1989C164.265 34.6187 164.413 34.0385 164.856 33.6033L170.81 26.7374C169.974 26.1571 168.645 25.867 167.562 25.867C163.33 25.867 159.984 29.3484 159.984 33.7484C159.984 38.1484 163.281 41.6297 167.562 41.6297C169.875 41.6297 171.598 40.6627 172.779 39.4539C173.566 38.8253 174.107 38.2451 175.141 38.2451C176.666 38.2451 177.798 39.3088 177.798 40.8078C177.798 41.3396 177.503 42.0166 177.011 42.5484C175.141 44.7726 171.745 46.5616 167.562 46.5616C160.131 46.5616 154.521 40.9045 154.521 33.7484Z" fill="black"/>
<path d="M182.867 14.456C182.867 12.9571 184.048 11.7966 185.574 11.7966C187.099 11.7966 188.28 12.9571 188.28 14.456V43.8056C188.28 45.3045 187.099 46.5133 185.574 46.5133C184.048 46.5133 182.867 45.3045 182.867 43.8056V14.456Z" fill="black"/>
<path d="M193.546 33.7484C193.546 26.5923 199.107 20.9351 206.587 20.9351C214.067 20.9351 219.628 26.5923 219.628 33.7484C219.628 40.9045 214.116 46.5616 206.587 46.5616C199.058 46.5616 193.546 40.9045 193.546 33.7484ZM214.166 33.7484C214.166 29.3967 210.918 25.867 206.587 25.867C202.256 25.867 199.008 29.3967 199.008 33.7484C199.008 38.1 202.256 41.6297 206.587 41.6297C210.918 41.6297 214.166 38.0517 214.166 33.7484Z" fill="black"/>
<path d="M244.48 43.5638C242.315 45.4496 239.46 46.5616 236.311 46.5616C229.224 46.5616 223.86 40.9045 223.86 33.7484C223.86 26.5923 229.224 20.9351 236.311 20.9351C239.46 20.9351 242.315 22.0472 244.48 23.9813V14.456C244.48 12.9571 245.661 11.7966 247.187 11.7966C248.712 11.7966 249.893 12.9571 249.893 14.456V43.8056C249.893 45.3045 248.712 46.5133 247.187 46.5133C245.661 46.5133 244.48 45.3045 244.48 43.8056V43.5638ZM244.48 33.7484V33.4099C244.283 29.1066 241.035 25.867 236.901 25.867C232.768 25.867 229.323 29.2517 229.323 33.7484C229.323 38.2451 232.669 41.6297 236.901 41.6297C241.134 41.6297 244.48 38.2451 244.48 33.7484Z" fill="black"/>
<path d="M255.7 15.0359C255.7 13.2952 257.127 11.893 258.899 11.893C260.671 11.893 262.098 13.2952 262.098 15.0359C262.098 16.7766 260.671 18.1788 258.899 18.1788C257.127 18.1788 255.7 16.7282 255.7 15.0359ZM256.192 23.6425C256.192 22.1436 257.373 20.9832 258.899 20.9832C260.425 20.9832 261.606 22.1436 261.606 23.6425V43.8053C261.606 45.3042 260.425 46.513 258.899 46.513C257.373 46.513 256.192 45.3042 256.192 43.8053V23.6425Z" fill="black"/>
<path d="M266.871 33.7484C266.871 26.5923 272.432 20.9351 279.912 20.9351C287.392 20.9351 292.953 26.5923 292.953 33.7484C292.953 40.9045 287.442 46.5616 279.912 46.5616C272.383 46.5616 266.871 40.9045 266.871 33.7484ZM287.479 33.7484C287.479 29.3967 284.231 25.867 279.9 25.867C275.569 25.867 272.321 29.3967 272.321 33.7484C272.321 38.1 275.569 41.6297 279.9 41.6297C284.231 41.6297 287.479 38.0517 287.479 33.7484Z" fill="black"/>
<path d="M298.219 23.6428C298.219 22.1439 299.4 20.9835 300.926 20.9835C302.451 20.9835 303.632 22.1439 303.632 23.6428V35.4407C303.632 39.5022 306.142 41.6297 309.292 41.6297C312.441 41.6297 314.951 39.5022 314.951 35.4407V23.6428C314.951 22.1439 316.132 20.9835 317.658 20.9835C319.183 20.9835 320.364 22.1439 320.364 23.6428V35.2473C320.364 42.1616 315.492 46.5616 309.292 46.5616C303.091 46.5616 298.219 42.1616 298.219 35.2473V23.6428Z" fill="black"/>
<path d="M328.041 38.2935C328.829 38.2935 329.518 38.6319 329.911 39.2605C330.649 40.3242 331.683 41.7748 333.799 41.7748C335.423 41.7748 336.604 40.566 336.604 39.1638C336.604 37.1814 334.734 36.4077 332.421 35.6341C329.321 34.5704 325.827 33.2649 325.827 28.2846C325.827 24.1747 329.271 20.9351 333.799 20.9351C337.982 20.9351 341.82 23.4494 341.82 26.4956C341.82 27.8494 340.689 28.8648 339.311 28.8648C338.769 28.8648 338.08 28.6714 337.736 27.9945C336.899 27.0758 335.718 25.6736 333.799 25.6736C332.126 25.6736 331.043 26.8824 331.043 28.2846C331.043 30.267 333.11 30.8956 335.62 31.7176C338.622 32.6363 342.017 34.1835 342.017 39.0187C342.017 43.0803 338.425 46.5616 333.799 46.5616C329.419 46.5616 325.581 43.7572 325.581 40.7594C325.581 39.4055 326.663 38.2935 328.041 38.2935Z" fill="black"/>
<path d="M52.6248 0.0424626C52.6248 0.0424626 56.8081 35.7275 58.8975 53.5701C59.7753 56.1845 62.1664 57.9588 64.7633 57.9993C67.8585 58.0487 70.7022 55.6185 71.1183 52.2898C69.4724 37.7714 67.8219 23.253 66.176 8.73913C65.92 7.89911 64.5164 3.57773 59.9856 1.2688C56.8035 -0.35284 52.6248 0.0424626 52.6248 0.0424626Z" fill="url(#paint0_linear_131_326)"/>
<path d="M27.0081 16.443C28.0825 26.9231 29.1614 37.4031 30.2359 47.8786C30.3364 48.512 31.26 53.8351 36.2571 56.4585C39.6678 58.2508 44.0157 57.5366 44.0157 57.5366L41.0851 31.8419C41.0851 31.8419 40.6325 27.8574 40.4039 25.8629C40.1295 24.9465 38.6071 20.149 33.6785 17.7188C30.9216 16.3622 28.3293 16.3487 27.0081 16.4385V16.443Z" fill="url(#paint1_linear_131_326)"/>
<path d="M15.4823 57.6264C14.737 49.936 13.9872 42.2455 13.242 34.5506C12.4648 31.6128 9.77191 29.5644 6.76814 29.5779C3.97468 29.5868 1.44182 31.3747 0.5 34.034C1.08521 39.1595 1.67042 44.2894 2.25563 49.4149C2.51623 50.2863 3.63178 53.6599 7.18419 55.9149C10.8646 58.2553 14.5999 57.7656 15.4823 57.6264Z" fill="url(#paint2_linear_131_326)"/>
<path d="M52.6248 0.0424805L41.0852 31.8464L44.0204 57.5411L55.5326 24.8387L52.6248 0.0424805Z" fill="#E8E8E8"/>
<path d="M27.0082 16.443L13.8044 40.3319L15.4823 57.6264L28.7547 33.4231L27.0082 16.443Z" fill="#E8E8E8"/>
<defs>
<linearGradient id="paint0_linear_131_326" x1="65.8834" y1="57.9229" x2="58.8092" y2="-0.701948" gradientUnits="userSpaceOnUse">
<stop stop-color="#6FA4E5"/>
<stop offset="1" stop-color="#A080C0"/>
</linearGradient>
<linearGradient id="paint1_linear_131_326" x1="37.9944" y1="58.2733" x2="32.8632" y2="15.7384" gradientUnits="userSpaceOnUse">
<stop stop-color="#6FA4E5"/>
<stop offset="1" stop-color="#A080C0"/>
</linearGradient>
<linearGradient id="paint2_linear_131_326" x1="9.7902" y1="58.3227" x2="6.32374" y2="29.59" gradientUnits="userSpaceOnUse">
<stop stop-color="#6FA4E5"/>
<stop offset="1" stop-color="#A080C0"/>
</linearGradient>
</defs>
</svg>
