<svg width="341" height="58" viewBox="0 0 341 58" fill="none" xmlns="http://www.w3.org/2000/svg">
<path d="M123.581 21.4966L103.437 45.151C103.437 45.1513 103.436 45.1516 103.436 45.1519C102.997 45.6612 102.304 45.9429 101.703 45.9429C100.496 45.9429 99.5002 44.9515 99.5002 43.7875C99.5002 43.3232 99.6085 42.9024 100.026 42.3657L124.879 13.2186C125.213 12.8469 125.515 12.6191 125.817 12.4806C126.118 12.3423 126.448 12.2788 126.861 12.2788C128.16 12.2788 129.211 13.3129 129.211 14.6272V28.8212V30.1762L130.091 29.1459L143.702 13.214L143.705 13.2104C144.292 12.5096 144.935 12.2788 145.631 12.2788C146.941 12.2788 148.03 13.3239 148.03 14.6272V43.5944C148.03 44.8549 146.936 45.9429 145.631 45.9429C144.327 45.9429 143.232 44.8549 143.232 43.5944V21.8208V20.4648L142.352 21.4962L129.331 36.7522L129.211 36.8924V37.0768V43.5944C129.211 44.866 128.154 45.9429 126.861 45.9429C125.556 45.9429 124.462 44.8549 124.462 43.5944V21.8208V20.4625L123.581 21.4966Z" fill="black" stroke="black"/>
<path d="M166.809 42.0668C169.258 42.0668 171.095 41.0445 172.354 39.7659C172.462 39.6794 172.562 39.5972 172.657 39.5196C173.295 38.9979 173.674 38.6873 174.376 38.6873C175.645 38.6873 176.53 39.5461 176.53 40.7461C176.53 41.1192 176.307 41.6793 175.877 42.1446L175.869 42.1533L175.861 42.1624C174.094 44.2638 170.847 45.9912 166.809 45.9912C159.661 45.9912 154.288 40.5619 154.288 33.6974C154.288 26.8317 159.613 21.4036 166.809 21.4036C170.514 21.4036 173.393 22.851 174.976 24.2687C175.486 24.7279 175.793 25.325 175.793 25.9245C175.793 26.4695 175.647 26.9343 175.13 27.527L175.127 27.5304L167.561 36.3644C167.561 36.3646 167.56 36.3647 167.56 36.3649C167.117 36.8789 166.668 37.0597 166.072 37.0597C164.846 37.0597 164.017 36.2423 164.017 35.1458C164.017 34.6458 164.144 34.2172 164.457 33.9092L164.472 33.8952L164.485 33.8802L170.43 27.0246L170.795 26.6037L170.337 26.2861C169.39 25.6288 167.951 25.328 166.809 25.328C162.289 25.328 158.742 29.0466 158.742 33.6974C158.742 38.3461 162.238 42.0668 166.809 42.0668Z" fill="black" stroke="black"/>
<path d="M182.591 14.4341C182.591 13.2219 183.538 12.2788 184.794 12.2788C186.049 12.2788 186.996 13.2219 186.996 14.4341V43.7393C186.996 44.9632 186.037 45.9429 184.794 45.9429C183.55 45.9429 182.591 44.9633 182.591 43.7393V14.4341Z" fill="black" stroke="black"/>
<path d="M193.254 33.6974C193.254 26.8317 198.579 21.4036 205.775 21.4036C212.971 21.4036 218.296 26.8317 218.296 33.6974C218.296 40.5644 213.019 45.9912 205.775 45.9912C198.531 45.9912 193.254 40.5644 193.254 33.6974ZM213.842 33.6974C213.842 29.1013 210.4 25.328 205.775 25.328C201.15 25.328 197.708 29.1013 197.708 33.6974C197.708 38.2935 201.15 42.0668 205.775 42.0668C210.402 42.0668 213.842 38.2432 213.842 33.6974Z" fill="black" stroke="black"/>
<path d="M244.111 43.4979V42.3994L243.282 43.1208C241.212 44.9238 238.479 45.9912 235.454 45.9912C228.671 45.9912 223.522 40.5836 223.522 33.6973C223.522 26.811 228.671 21.4035 235.454 21.4035C238.478 21.4035 241.209 22.4704 243.278 24.3179L244.111 25.0621V23.945V14.4341C244.111 13.2219 245.058 12.2788 246.313 12.2788C247.569 12.2788 248.516 13.2219 248.516 14.4341V43.7393C248.516 44.9632 247.557 45.9429 246.313 45.9429C245.07 45.9429 244.111 44.9633 244.111 43.7393V43.4979ZM244.111 33.3594V33.3479L244.11 33.3365C243.902 28.7921 240.457 25.3279 236.043 25.3279C231.63 25.3279 227.976 28.9416 227.976 33.6973C227.976 38.4488 231.527 42.0667 236.043 42.0667C240.56 42.0667 244.111 38.4488 244.111 33.6973V33.3594Z" fill="black" stroke="black"/>
<path d="M255.314 15.0131C255.314 13.5595 256.507 12.375 258.008 12.375C259.509 12.375 260.702 13.5595 260.702 15.0131C260.702 16.4667 259.509 17.6512 258.008 17.6512C256.512 17.6512 255.314 16.4234 255.314 15.0131ZM255.805 23.6067C255.805 22.3945 256.752 21.4514 258.008 21.4514C259.263 21.4514 260.21 22.3945 260.21 23.6067V43.7389C260.21 44.9629 259.251 45.9425 258.008 45.9425C256.764 45.9425 255.805 44.9629 255.805 43.7389V23.6067Z" fill="black" stroke="black"/>
<path d="M266.468 33.6974C266.468 26.8317 271.793 21.4036 278.989 21.4036C286.185 21.4036 291.511 26.8317 291.511 33.6974C291.511 40.5644 286.233 45.9912 278.989 45.9912C271.745 45.9912 266.468 40.5644 266.468 33.6974ZM287.044 33.6974C287.044 29.1013 283.602 25.328 278.977 25.328C274.352 25.328 270.91 29.1013 270.91 33.6974C270.91 38.2935 274.352 42.0668 278.977 42.0668C283.604 42.0668 287.044 38.2432 287.044 33.6974Z" fill="black" stroke="black"/>
<path d="M297.768 23.607C297.768 22.3948 298.715 21.4517 299.971 21.4517C301.226 21.4517 302.173 22.3948 302.173 23.607V35.387C302.173 37.5198 302.835 39.1995 303.963 40.348C305.09 41.4953 306.638 42.0666 308.324 42.0666C310.01 42.0666 311.558 41.4953 312.685 40.348C313.814 39.1995 314.475 37.5198 314.475 35.387V23.607C314.475 22.3948 315.422 21.4517 316.677 21.4517C317.933 21.4517 318.88 22.3948 318.88 23.607V35.1939C318.88 38.5237 317.709 41.2159 315.823 43.0753C313.934 44.9366 311.3 45.9911 308.324 45.9911C305.348 45.9911 302.714 44.9366 300.825 43.0753C298.939 41.2159 297.768 38.5237 297.768 35.1939V23.607Z" fill="black" stroke="black"/>
<path d="M328.489 39.4666L328.495 39.4766L328.502 39.4862C329.233 40.5399 330.399 42.2117 332.794 42.2117C334.672 42.2117 336.095 40.8007 336.095 39.1046C336.095 37.9169 335.518 37.0901 334.663 36.4823C333.838 35.8962 332.725 35.4901 331.579 35.1067C330.02 34.5718 328.466 34.0063 327.291 32.9981C326.148 32.0174 325.334 30.5896 325.334 28.2419C325.334 24.4492 328.514 21.4036 332.794 21.4036C334.788 21.4036 336.691 22.0043 338.084 22.9523C339.483 23.905 340.304 25.1579 340.304 26.4556C340.304 27.4974 339.433 28.3213 338.298 28.3213C337.851 28.3213 337.394 28.1637 337.171 27.7255L337.14 27.6654L337.095 27.6156C337.053 27.5695 337.01 27.5214 336.965 27.4717C336.152 26.5723 334.854 25.1349 332.794 25.1349C330.85 25.1349 329.543 26.5634 329.543 28.2419C329.543 29.4596 330.202 30.2513 331.127 30.8169C331.969 31.3318 333.097 31.7004 334.256 32.0791C334.323 32.101 334.39 32.1229 334.457 32.1449L334.457 32.145L334.466 32.1478C335.952 32.6024 337.459 33.1924 338.595 34.2193C339.708 35.2252 340.5 36.6817 340.5 38.9598C340.5 42.7071 337.17 45.9912 332.794 45.9912C330.71 45.9912 328.761 45.3227 327.342 44.3101C325.913 43.2903 325.088 41.9753 325.088 40.6978C325.088 39.6175 325.95 38.7356 327.045 38.7356C327.686 38.7356 328.2 39.0061 328.489 39.4666Z" fill="black" stroke="black"/>
<path d="M52.046 0.0423983C52.046 0.0423983 56.223 35.6734 58.3092 53.4889C59.1857 56.0993 61.5732 57.871 64.1662 57.9114C67.2567 57.9607 70.0961 55.5342 70.5115 52.2106C68.8681 37.7142 67.2202 23.2178 65.5768 8.72589C65.3211 7.88714 63.9197 3.57231 59.3957 1.26688C56.2185 -0.352306 52.046 0.0423983 52.046 0.0423983Z" fill="url(#paint0_linear_123_97)"/>
<path d="M26.4682 16.4181C27.541 26.8822 28.6184 37.3464 29.6912 47.806C29.7916 48.4385 30.7137 53.7535 35.7033 56.3729C39.1088 58.1625 43.4501 57.4494 43.4501 57.4494L40.5239 31.7936C40.5239 31.7936 40.072 27.8152 39.8438 25.8237C39.5699 24.9087 38.0497 20.1185 33.1286 17.6919C30.3759 16.3374 27.7875 16.3239 26.4682 16.4136V16.4181Z" fill="url(#paint1_linear_123_97)"/>
<path d="M14.9598 57.5391C14.2157 49.8603 13.4671 42.1815 12.723 34.4982C11.9469 31.5649 9.25811 29.5196 6.25889 29.533C3.46966 29.542 0.940639 31.3271 0.000244141 33.9824C0.584567 39.1001 1.16889 44.2223 1.75321 49.34C2.01342 50.2101 3.12728 53.5786 6.67431 55.8302C10.3491 58.167 14.0788 57.6781 14.9598 57.5391Z" fill="url(#paint2_linear_123_97)"/>
<path d="M52.046 0.0424805L40.5239 31.7982L43.4547 57.454L54.9494 24.8012L52.046 0.0424805Z" fill="white"/>
<path d="M26.4682 16.4182L13.2844 40.2709L14.9598 57.5392L28.2121 33.3725L26.4682 16.4182Z" fill="white"/>
<defs>
<linearGradient id="paint0_linear_123_97" x1="65.2846" y1="57.8351" x2="58.2211" y2="-0.700885" gradientUnits="userSpaceOnUse">
<stop stop-color="#001836"/>
<stop offset="1" stop-color="#C7C7C7"/>
</linearGradient>
<linearGradient id="paint1_linear_123_97" x1="37.438" y1="58.185" x2="32.3145" y2="15.7145" gradientUnits="userSpaceOnUse">
<stop stop-color="#001836"/>
<stop offset="1" stop-color="#C7C7C7"/>
</linearGradient>
<linearGradient id="paint2_linear_123_97" x1="9.27637" y1="58.2343" x2="5.81516" y2="29.5452" gradientUnits="userSpaceOnUse">
<stop stop-color="#001836"/>
<stop offset="1" stop-color="#C7C7C7"/>
</linearGradient>
</defs>
</svg>
