<svg width="272" height="64" viewBox="0 0 272 64" fill="none" xmlns="http://www.w3.org/2000/svg">
<g clip-path="url(#clip0_123_128)">
<path d="M37.9582 27.1L61.2712 0H55.7462L35.5042 23.53L19.3362 0H0.688232L25.1372 35.582L0.688232 64H6.21323L27.5902 39.1515L44.6642 64H63.3122L37.9567 27.1H37.9582ZM30.3912 35.895L27.9137 32.352L8.20373 4.159H16.6897L32.5952 26.912L35.0722 30.455L55.7487 60.03H47.2637L30.3912 35.8965V35.895Z" fill="white"/>
</g>
<g clip-path="url(#clip1_123_128)">
<path d="M122.56 0H149.44C159.68 0 168 8.32 168 18.56V45.44C168 50.3624 166.045 55.0832 162.564 58.5639C159.083 62.0446 154.363 64 149.44 64H122.56C112.32 64 104 55.68 104 45.44V18.56C104 13.6376 105.956 8.91677 109.436 5.4361C112.917 1.95542 117.638 0 122.56 0ZM121.92 6.4C118.865 6.4 115.935 7.61371 113.774 9.77413C111.614 11.9345 110.4 14.8647 110.4 17.92V46.08C110.4 52.448 115.552 57.6 121.92 57.6H150.08C153.136 57.6 156.066 56.3863 158.226 54.2259C160.387 52.0655 161.6 49.1353 161.6 46.08V17.92C161.6 11.552 156.448 6.4 150.08 6.4H121.92ZM152.8 11.2C153.861 11.2 154.879 11.6214 155.629 12.3716C156.379 13.1217 156.8 14.1391 156.8 15.2C156.8 16.2609 156.379 17.2783 155.629 18.0284C154.879 18.7786 153.861 19.2 152.8 19.2C151.739 19.2 150.722 18.7786 149.972 18.0284C149.222 17.2783 148.8 16.2609 148.8 15.2C148.8 14.1391 149.222 13.1217 149.972 12.3716C150.722 11.6214 151.739 11.2 152.8 11.2ZM136 16C140.244 16 144.313 17.6857 147.314 20.6863C150.315 23.6869 152 27.7565 152 32C152 36.2435 150.315 40.3131 147.314 43.3137C144.313 46.3143 140.244 48 136 48C131.757 48 127.687 46.3143 124.687 43.3137C121.686 40.3131 120 36.2435 120 32C120 27.7565 121.686 23.6869 124.687 20.6863C127.687 17.6857 131.757 16 136 16ZM136 22.4C133.454 22.4 131.012 23.4114 129.212 25.2118C127.412 27.0121 126.4 29.4539 126.4 32C126.4 34.5461 127.412 36.9879 129.212 38.7882C131.012 40.5886 133.454 41.6 136 41.6C138.546 41.6 140.988 40.5886 142.788 38.7882C144.589 36.9879 145.6 34.5461 145.6 32C145.6 29.4539 144.589 27.0121 142.788 25.2118C140.988 23.4114 138.546 22.4 136 22.4Z" fill="white"/>
</g>
<path d="M234.4 0H230.8L228.4 9.2L226 0H222C222.8 2.4 223.6 4.4 224.4 6.8C225.6 10 226.4 12.8 226.4 14.4V24H230V14.4L234.4 0ZM244 18V12C244 10 243.6 8.8 242.8 7.6C242 6.4 240.8 6 239.2 6C237.6 6 236.4 6.8 235.6 8C234.8 8.8 234.4 10 234.4 12V18.4C234.4 20.4 234.8 21.6 235.6 22.4C236.4 23.6 237.6 24 239.2 24C240.8 24 242 23.2 242.8 22C243.6 21.6 244 20 244 18ZM240.8 18.8C240.8 20.4 240.4 21.2 239.2 21.2C238 21.2 237.6 20.4 237.6 18.8V11.2C237.6 9.6 238 8.8 239.2 8.8C240.4 8.8 240.8 9.6 240.8 11.2V18.8ZM256 24V6H252.8V19.6C252 20.8 251.6 21.2 250.8 21.2C250.4 21.2 250 20.8 250 20.4V6H246.8V20C246.8 21.2 246.8 22 247.2 22.8C247.2 23.6 248 24 249.2 24C250.4 24 251.6 23.2 252.8 22V24H256ZM257.6 42C256.4 42 256 42.8 256 44.4V46H259.2V44.4C259.2 42.8 258.8 42 257.6 42ZM246 42C245.6 42 244.8 42.4 244.4 42.8V53.6C244.8 54 245.6 54.4 246 54.4C246.8 54.4 247.2 53.6 247.2 52V44.4C247.2 42.8 246.8 42 246 42Z" fill="white"/>
<path d="M265.6 33.2C264.8 30.4 262.4 28 260 28C253.6 27.2 246.8 27.2 240 27.2C233.2 27.2 226.8 27.2 220 28C217.6 28 215.2 30.4 214.4 33.2C213.6 37.2 213.6 41.5999 213.6 45.5999C213.6 49.5999 213.6 54 214.4 58C215.2 60.7999 217.2 62.7999 220 63.2C226.8 64 233.2 64 240 64C246.8 64 253.2 64 260 63.2C262.8 62.7999 265.2 60.7999 265.6 58C266.4 54 266.4 49.5999 266.4 45.5999C266.4 41.5999 266.4 37.2 265.6 33.2ZM228.8 36.7999H224.8V57.2H221.2V36.7999H217.6V33.2H228.8V36.7999ZM238.4 57.2H235.2V55.2C234 56.8 232.8 57.2 231.6 57.2C230.4 57.2 230 56.7999 229.6 56C229.6 55.6 229.2 54.8 229.2 53.2V39.2H232.4V53.2C232.4 53.6 232.8 54 233.2 54C234 54 234.4 53.6 235.2 52.4V39.2H238.4V57.2ZM250.4 51.5999C250.4 53.1999 250.4 54.4 250 55.2C249.6 56.4 248.8 57.2 247.6 57.2C246.4 57.2 245.2 56.4 244.4 55.2V56.7999H241.2V33.2H244.4V40.7999C245.6 39.5999 246.4 38.7999 247.6 38.7999C248.8 38.7999 249.6 39.5999 250 40.7999C250.4 41.5999 250.4 42.8 250.4 44.4V51.5999ZM262.4 48.7999H256V52C256 53.6 256.4 54.4 257.6 54.4C258.4 54.4 258.8 54 259.2 53.2V51.2H262.4V53.5999C262.4 54.3999 262 54.7999 261.6 55.5999C260.8 56.7999 259.6 57.5999 257.6 57.5999C256 57.5999 254.8 56.7999 253.6 55.5999C252.8 54.7999 252.4 53.1999 252.4 51.5999V45.5999C252.4 43.5999 252.8 42.3999 253.2 41.5999C254 40.3999 255.2 39.5999 257.2 39.5999C258.8 39.5999 260 40.3999 260.8 41.5999C261.6 42.3999 261.6 43.9999 261.6 45.5999V48.7999H262.4Z" fill="white"/>
<defs>
<clipPath id="clip0_123_128">
<rect width="64" height="64" fill="white" transform="translate(0.000244141)"/>
</clipPath>
<clipPath id="clip1_123_128">
<rect width="64" height="64" fill="white" transform="translate(104)"/>
</clipPath>
</defs>
</svg>
