<svg width="64" height="64" viewBox="0 0 64 64" fill="none" xmlns="http://www.w3.org/2000/svg">
<path d="M26.4002 0H22.8002L20.4002 9.2L18.0002 0H14.0002C14.8002 2.4 15.6002 4.4 16.4002 6.8C17.6002 10 18.4002 12.8 18.4002 14.4V24H22.0002V14.4L26.4002 0ZM36.0002 18V12C36.0002 10 35.6002 8.8 34.8002 7.6C34.0002 6.4 32.8002 6 31.2002 6C29.6002 6 28.4002 6.8 27.6002 8C26.8002 8.8 26.4002 10 26.4002 12V18.4C26.4002 20.4 26.8002 21.6 27.6002 22.4C28.4002 23.6 29.6002 24 31.2002 24C32.8002 24 34.0002 23.2 34.8002 22C35.6002 21.6 36.0002 20 36.0002 18ZM32.8002 18.8C32.8002 20.4 32.4002 21.2 31.2002 21.2C30.0002 21.2 29.6002 20.4 29.6002 18.8V11.2C29.6002 9.6 30.0002 8.8 31.2002 8.8C32.4002 8.8 32.8002 9.6 32.8002 11.2V18.8ZM48.0002 24V6H44.8002V19.6C44.0002 20.8 43.6002 21.2 42.8002 21.2C42.4002 21.2 42.0002 20.8 42.0002 20.4V6H38.8002V20C38.8002 21.2 38.8002 22 39.2002 22.8C39.2002 23.6 40.0002 24 41.2002 24C42.4002 24 43.6002 23.2 44.8002 22V24H48.0002ZM49.6002 42C48.4002 42 48.0002 42.8 48.0002 44.4V46H51.2002V44.4C51.2002 42.8 50.8002 42 49.6002 42ZM38.0002 42C37.6002 42 36.8002 42.4 36.4002 42.8V53.6C36.8002 54 37.6002 54.4 38.0002 54.4C38.8002 54.4 39.2002 53.6 39.2002 52V44.4C39.2002 42.8 38.8002 42 38.0002 42Z" fill="white"/>
<path d="M57.6002 33.2C56.8002 30.4 54.4002 28 52.0002 28C45.6002 27.2 38.8002 27.2 32.0002 27.2C25.2002 27.2 18.8002 27.2 12.0002 28C9.60022 28 7.20022 30.4 6.40022 33.2C5.60022 37.2 5.60022 41.5999 5.60022 45.5999C5.60022 49.5999 5.60022 54 6.40022 58C7.20022 60.7999 9.20022 62.7999 12.0002 63.2C18.8002 64 25.2002 64 32.0002 64C38.8002 64 45.2002 64 52.0002 63.2C54.8002 62.7999 57.2002 60.7999 57.6002 58C58.4002 54 58.4002 49.5999 58.4002 45.5999C58.4002 41.5999 58.4002 37.2 57.6002 33.2ZM20.8002 36.7999H16.8002V57.2H13.2002V36.7999H9.60022V33.2H20.8002V36.7999ZM30.4002 57.2H27.2002V55.2C26.0002 56.8 24.8002 57.2 23.6002 57.2C22.4002 57.2 22.0002 56.7999 21.6002 56C21.6002 55.6 21.2002 54.8 21.2002 53.2V39.2H24.4002V53.2C24.4002 53.6 24.8002 54 25.2002 54C26.0002 54 26.4002 53.6 27.2002 52.4V39.2H30.4002V57.2ZM42.4002 51.5999C42.4002 53.1999 42.4002 54.4 42.0002 55.2C41.6002 56.4 40.8002 57.2 39.6002 57.2C38.4002 57.2 37.2002 56.4 36.4002 55.2V56.7999H33.2002V33.2H36.4002V40.7999C37.6002 39.5999 38.4002 38.7999 39.6002 38.7999C40.8002 38.7999 41.6002 39.5999 42.0002 40.7999C42.4002 41.5999 42.4002 42.8 42.4002 44.4V51.5999ZM54.4002 48.7999H48.0002V52C48.0002 53.6 48.4002 54.4 49.6002 54.4C50.4002 54.4 50.8002 54 51.2002 53.2V51.2H54.4002V53.5999C54.4002 54.3999 54.0002 54.7999 53.6002 55.5999C52.8002 56.7999 51.6002 57.5999 49.6002 57.5999C48.0002 57.5999 46.8002 56.7999 45.6002 55.5999C44.8002 54.7999 44.4002 53.1999 44.4002 51.5999V45.5999C44.4002 43.5999 44.8002 42.3999 45.2002 41.5999C46.0002 40.3999 47.2002 39.5999 49.2002 39.5999C50.8002 39.5999 52.0002 40.3999 52.8002 41.5999C53.6002 42.3999 53.6002 43.9999 53.6002 45.5999V48.7999H54.4002Z" fill="white"/>
</svg>
